<svg xmlns="http://www.w3.org/2000/svg" xmlns:xlink="http://www.w3.org/1999/xlink" viewBox="0 0 336 504"><defs><style>.cls-1,.cls-19,.cls-2,.cls-3{fill:none}.cls-2{stroke:#dcd4a6;stroke-width:.25px}.cls-19,.cls-2{stroke-miterlimit:10}.cls-3{stroke:#85080a;stroke-width:.95px}.cls-10,.cls-4{fill:#fff}.cls-4{opacity:.5}.cls-5{fill:#fac839}.cls-5,.cls-6,.cls-7{opacity:.75}.cls-6{fill:#009f4d}.cls-7{fill:#0091d4}.cls-8{fill:#231f20;opacity:.6}.cls-9{fill:#da2128}.cls-10{opacity:.33}.cls-11{fill:#fff9db}.cls-12{fill:#edc945}.cls-13{fill:#dcd4a6}.cls-14{fill:url(#Bread_Pattern)}.cls-15{fill:#f2f2f2}.cls-16{fill:#003a60}.cls-17{fill:#374f70}.cls-18{fill:url(#Plaid_4_Color)}.cls-19{stroke:#000;stroke-width:2px}.cls-20{fill:#698a3b}.cls-21{fill:#475b28}</style><pattern id="Bread_Pattern" width="30" height="30" data-name="Bread Pattern" patternUnits="userSpaceOnUse" viewBox="0 0 30 30"><rect width="30" height="30" class="cls-1"/><line x1="36" x2="18" y1="18" y2="36" class="cls-2"/><line x1="42" x2="18" y1="18" y2="42" class="cls-2"/><line x1="48" x2="18" y1="18" y2="48" class="cls-2"/><line x1="54" x2="18" y1="18" y2="54" class="cls-2"/><line x1="60" x2="18" y1="18" y2="60" class="cls-2"/><line x1="66" x2="18" y1="18" y2="66" class="cls-2"/><line x1="72" x2="18" y1="18" y2="72" class="cls-2"/><line x1="72" x2="24" y1="24" y2="72" class="cls-2"/><line x1="72" x2="30" y1="30" y2="72" class="cls-2"/><line x1="6" x2="-12" y1="18" y2="36" class="cls-2"/><line x1="12" x2="-12" y1="18" y2="42" class="cls-2"/><line x1="18" x2="-12" y1="18" y2="48" class="cls-2"/><line x1="24" x2="-12" y1="18" y2="54" class="cls-2"/><line x1="30" x2="-12" y1="18" y2="60" class="cls-2"/><line x1="36" x2="-12" y1="18" y2="66" class="cls-2"/><line x1="42" x2="-12" y1="18" y2="72" class="cls-2"/><line x1="42" x2="-6" y1="24" y2="72" class="cls-2"/><line x1="42" y1="30" y2="72" class="cls-2"/><line x2="-42" y1="18" y2="60" class="cls-2"/><line x1="6" x2="-42" y1="18" y2="66" class="cls-2"/><line x1="12" x2="-42" y1="18" y2="72" class="cls-2"/><line x1="12" x2="-36" y1="24" y2="72" class="cls-2"/><line x1="12" x2="-30" y1="30" y2="72" class="cls-2"/><line x1="36" x2="18" y1="-12" y2="6" class="cls-2"/><line x1="42" x2="18" y1="-12" y2="12" class="cls-2"/><line x1="48" x2="18" y1="-12" y2="18" class="cls-2"/><line x1="54" x2="18" y1="-12" y2="24" class="cls-2"/><line x1="60" x2="18" y1="-12" y2="30" class="cls-2"/><line x1="66" x2="18" y1="-12" y2="36" class="cls-2"/><line x1="72" x2="18" y1="-12" y2="42" class="cls-2"/><line x1="72" x2="24" y1="-6" y2="42" class="cls-2"/><line x1="72" x2="30" y2="42" class="cls-2"/><line x1="6" x2="-12" y1="-12" y2="6" class="cls-2"/><line x1="12" x2="-12" y1="-12" y2="12" class="cls-2"/><line x1="18" x2="-12" y1="-12" y2="18" class="cls-2"/><line x1="24" x2="-12" y1="-12" y2="24" class="cls-2"/><line x1="30" x2="-12" y1="-12" y2="30" class="cls-2"/><line x1="36" x2="-12" y1="-12" y2="36" class="cls-2"/><line x1="42" x2="-12" y1="-12" y2="42" class="cls-2"/><line x1="42" x2="-6" y1="-6" y2="42" class="cls-2"/><line x1="42" y2="42" class="cls-2"/><line x1="42" x2="6" y1="6" y2="42" class="cls-2"/><line x1="42" x2="12" y1="12" y2="42" class="cls-2"/><line x1="42" x2="18" y1="18" y2="42" class="cls-2"/><line x1="42" x2="24" y1="24" y2="42" class="cls-2"/><line x1="42" x2="30" y1="30" y2="42" class="cls-2"/><line x2="-42" y1="-12" y2="30" class="cls-2"/><line x1="6" x2="-42" y1="-12" y2="36" class="cls-2"/><line x1="12" x2="-42" y1="-12" y2="42" class="cls-2"/><line x1="12" x2="-36" y1="-6" y2="42" class="cls-2"/><line x1="12" x2="-30" y2="42" class="cls-2"/><line x1="12" x2="-24" y1="6" y2="42" class="cls-2"/><line x1="12" x2="-18" y1="12" y2="42" class="cls-2"/><line x1="12" x2="-12" y1="18" y2="42" class="cls-2"/><line x1="12" x2="-6" y1="24" y2="42" class="cls-2"/><line x1="12" y1="30" y2="42" class="cls-2"/><line x1="60" x2="18" y1="-42" class="cls-2"/><line x1="66" x2="18" y1="-42" y2="6" class="cls-2"/><line x1="72" x2="18" y1="-42" y2="12" class="cls-2"/><line x1="72" x2="24" y1="-36" y2="12" class="cls-2"/><line x1="72" x2="30" y1="-30" y2="12" class="cls-2"/><line x1="30" x2="-12" y1="-42" class="cls-2"/><line x1="36" x2="-12" y1="-42" y2="6" class="cls-2"/><line x1="42" x2="-12" y1="-42" y2="12" class="cls-2"/><line x1="42" x2="-6" y1="-36" y2="12" class="cls-2"/><line x1="42" y1="-30" y2="12" class="cls-2"/><line x1="42" x2="6" y1="-24" y2="12" class="cls-2"/><line x1="42" x2="12" y1="-18" y2="12" class="cls-2"/><line x1="42" x2="18" y1="-12" y2="12" class="cls-2"/><line x1="42" x2="24" y1="-6" y2="12" class="cls-2"/><line x1="42" x2="30" y2="12" class="cls-2"/><line x2="-42" y1="-42" class="cls-2"/><line x1="6" x2="-42" y1="-42" y2="6" class="cls-2"/><line x1="12" x2="-42" y1="-42" y2="12" class="cls-2"/><line x1="12" x2="-36" y1="-36" y2="12" class="cls-2"/><line x1="12" x2="-30" y1="-30" y2="12" class="cls-2"/><line x1="12" x2="-24" y1="-24" y2="12" class="cls-2"/><line x1="12" x2="-18" y1="-18" y2="12" class="cls-2"/><line x1="12" x2="-12" y1="-12" y2="12" class="cls-2"/><line x1="12" x2="-6" y1="-6" y2="12" class="cls-2"/><line x1="12" y2="12" class="cls-2"/></pattern><pattern id="Plaid_4_Color" width="82.08" height="82.08" data-name="Plaid 4 Color" patternUnits="userSpaceOnUse" viewBox="0 0 82.08 82.08"><rect width="82.08" height="82.08" class="cls-1"/><line x1="30.89" x2="30.89" y1="82.07" y2="164.18" class="cls-3"/><line x1="58.25" x2="58.25" y1="82.07" y2="164.18" class="cls-3"/><line x1="3.53" x2="3.53" y1="82.07" y2="164.15" class="cls-3"/><rect width="4.56" height="82.11" x="37.73" y="82.07" class="cls-4"/><rect width="4.56" height="82.11" x="65.09" y="82.07" class="cls-5"/><rect width="4.56" height="82.11" x="10.37" y="82.07" class="cls-6"/><rect width="4.56" height="82.1" x="74.21" y="82.08" class="cls-7"/><rect width="4.56" height="82.11" x="19.49" y="82.07" class="cls-8"/><rect width="82.09" height="82.1" y=".01" class="cls-9"/><line x1=".01" x2="82.09" y1="51.47" y2="51.47" class="cls-3"/><line x1=".01" x2="82.09" y1="78.83" y2="78.83" class="cls-3"/><line x1=".01" x2="82.09" y1="24.11" y2="24.11" class="cls-3"/><line x1="30.89" x2="30.89" y2="82.1" class="cls-3"/><line x1="58.25" x2="58.25" y2="82.1" class="cls-3"/><line x1="3.53" x2="3.53" y2="82.07" class="cls-3"/><rect width="82.08" height="4.56" x=".01" y="40.07" class="cls-6"/><rect width="82.08" height="4.56" x=".01" y="67.43" class="cls-7"/><rect width="82.08" height="4.56" x=".01" y="12.71" class="cls-5"/><rect width="82.08" height="4.56" x=".01" y="30.95" class="cls-7"/><rect width="82.08" height="4.56" x=".01" y="58.31" class="cls-5"/><rect width="82.08" height="4.56" x=".01" y="3.59" class="cls-6"/><rect width="4.56" height="82.11" x="37.73" class="cls-4"/><rect width="4.56" height="82.11" x="65.09" class="cls-5"/><rect width="4.56" height="82.11" x="10.37" class="cls-6"/><rect width="4.56" height="82.1" x="46.85" class="cls-7"/><rect width="4.56" height="82.1" x="74.21" class="cls-7"/><rect width="4.56" height="82.11" x="19.49" class="cls-8"/><rect width="4.56" height="4.56" x="10.37" y="12.71" class="cls-10"/><rect width="4.56" height="4.56" x="19.49" y="3.59" class="cls-10"/><rect width="4.56" height="4.56" x="19.49" y="12.71" class="cls-10"/><rect width="4.56" height="4.56" x="10.37" y="3.59" class="cls-10"/><rect width="4.56" height="4.56" x="37.73" y="12.71" class="cls-10"/><rect width="4.56" height="4.56" x="46.85" y="3.59" class="cls-10"/><rect width="4.56" height="4.56" x="46.85" y="12.71" class="cls-10"/><rect width="4.56" height="4.56" x="37.73" y="3.59" class="cls-10"/><rect width="4.56" height="4.56" x="65.09" y="12.71" class="cls-10"/><rect width="4.56" height="4.56" x="74.21" y="3.59" class="cls-10"/><rect width="4.56" height="4.56" x="74.21" y="12.71" class="cls-10"/><rect width="4.56" height="4.56" x="65.09" y="3.59" class="cls-10"/><rect width="4.56" height="4.56" x="10.37" y="40.07" class="cls-10"/><rect width="4.56" height="4.56" x="19.49" y="30.95" class="cls-10"/><rect width="4.56" height="4.56" x="19.49" y="40.07" class="cls-10"/><rect width="4.56" height="4.56" x="10.37" y="30.95" class="cls-10"/><rect width="4.56" height="4.56" x="37.73" y="40.07" class="cls-10"/><rect width="4.56" height="4.56" x="46.85" y="30.95" class="cls-10"/><rect width="4.56" height="4.56" x="46.85" y="40.07" class="cls-10"/><rect width="4.56" height="4.56" x="37.73" y="30.95" class="cls-10"/><rect width="4.56" height="4.56" x="65.09" y="40.07" class="cls-10"/><rect width="4.56" height="4.56" x="74.21" y="30.95" class="cls-10"/><rect width="4.56" height="4.56" x="74.21" y="40.07" class="cls-10"/><rect width="4.56" height="4.56" x="65.09" y="30.95" class="cls-10"/><rect width="4.56" height="4.56" x="10.37" y="67.43" class="cls-10"/><rect width="4.56" height="4.56" x="19.49" y="58.31" class="cls-10"/><rect width="4.56" height="4.56" x="19.49" y="67.43" class="cls-10"/><rect width="4.56" height="4.56" x="10.37" y="58.31" class="cls-10"/><rect width="4.56" height="4.56" x="37.73" y="67.43" class="cls-10"/><rect width="4.56" height="4.56" x="46.85" y="58.31" class="cls-10"/><rect width="4.56" height="4.56" x="46.85" y="67.43" class="cls-10"/><rect width="4.56" height="4.56" x="37.73" y="58.31" class="cls-10"/><rect width="4.56" height="4.56" x="65.09" y="67.43" class="cls-10"/><rect width="4.56" height="4.56" x="74.21" y="58.31" class="cls-10"/><rect width="4.56" height="4.56" x="74.21" y="67.43" class="cls-10"/><rect width="4.56" height="4.56" x="65.09" y="58.31" class="cls-10"/><rect width="82.09" height="82.1" x="-82.08" y=".01" class="cls-9"/><line x1="-82.07" x2=".01" y1="51.47" y2="51.47" class="cls-3"/><line x1="-82.07" x2=".01" y1="78.83" y2="78.83" class="cls-3"/><line x1="-82.07" x2=".01" y1="24.11" y2="24.11" class="cls-3"/><rect width="82.08" height="4.56" x="-82.07" y="40.07" class="cls-6"/><rect width="82.08" height="4.56" x="-82.07" y="67.43" class="cls-7"/><rect width="82.08" height="4.56" x="-82.07" y="12.71" class="cls-5"/><rect width="82.08" height="4.56" x="-82.07" y="30.95" class="cls-7"/><rect width="82.08" height="4.56" x="-82.07" y="58.31" class="cls-5"/><rect width="82.08" height="4.56" x="-82.07" y="3.59" class="cls-6"/><rect width="82.09" height="82.1" y="-82.07" class="cls-9"/><line x1="30.89" x2="30.89" y1="-82.08" y2=".02" class="cls-3"/><line x1="58.25" x2="58.25" y1="-82.08" y2=".02" class="cls-3"/><rect width="4.56" height="82.11" x="37.73" y="-82.08" class="cls-4"/><rect width="4.56" height="82.11" x="65.09" y="-82.08" class="cls-5"/><rect width="4.56" height="82.11" x="10.37" y="-82.08" class="cls-6"/><rect width="4.56" height="82.1" x="46.85" y="-82.08" class="cls-7"/><rect width="4.56" height="82.1" x="74.21" y="-82.08" class="cls-7"/><rect width="4.56" height="82.11" x="19.49" y="-82.08" class="cls-8"/><rect width="82.09" height="82.1" x="-82.08" y="-82.07" class="cls-9"/></pattern></defs><title>avatar</title><g id="Naked"><g id="Feet"><rect id="Letf_Foot" width="144" height="48" y="1296" class="cls-11" data-name="Letf Foot"/><rect id="Right_Foot" width="144" height="48" x="192" y="1296" class="cls-11" data-name="Right Foot"/></g><g id="Head"><polygon id="Face" points="240 288 240 384 96 384 96 48 288 48 288 288 240 288" class="cls-11"/><polyline id="Hair" points="96 48 192 48 192 0 336 0 336 96 288 96 192 96 192 144 144 144 143 192 96 192" class="cls-12"/><rect id="Chin" width="96" height="48" x="144" y="288" class="cls-13"/><polygon id="Beard" points="288 288 97 288 96 192 144 192 144 240 288 240 288 288" class="cls-14"/></g><g id="Body"><polygon id="Torso" points="48 768 288 768 288 432 288 864 336 864 336 384 288 384 288 336 192 336 192 384 144 384 144 336 48 336 48 384 0 384 0 864 48 864 48 432 48 768" class="cls-11"/><polygon id="Legs" points="288 1296 192 1296 192 816 144 816 144 1296 48 1296 48 768 288 768 288 1296" class="cls-11"/><g id="Undershirt"><polygon points="48 768 288 768 288 432 288 528 336 528 336 384 288 384 288 336 192 336 192 384 144 384 144 336 48 336 48 384 0 384 0 528 48 528 48 432 48 768" class="cls-15"/></g><polygon id="Boxers" points="288 864 192 864 192 816 144 816 144 864 48 864 48 720 288 720 288 864" class="cls-16"/></g></g><g id="Hipster"><polyline id="Jeans" points="288 1296 192 1296 192 816 144 816 144 1296 48 1296 48 720 288 720" class="cls-16"/><rect width="48" height="96" x="48" y="960" class="cls-17"/><rect width="48" height="96" x="240" y="960" class="cls-17"/><g id="Plaid_Shirt" data-name="Plaid Shirt"><g id="Pattern_One" data-name="Pattern One"><polygon points="48 768 288 768 288 432 288 768 336 768 336 384 288 384 288 336 192 336 192 384 144 384 144 336 48 336 49 384 0 384 0 768 48 768 49 433 48 768" class="cls-18"/></g><line id="Left_Lapel" x1="144" x2="96" y1="336" y2="384" class="cls-19" data-name="Left Lapel"/><line id="Right_Lapel" x1="192" x2="240" y1="336" y2="384" class="cls-19" data-name="Right Lapel"/><g id="Buttons"><rect width="12" height="12" x="162" y="402"/><rect width="12" height="12" x="162" y="450"/><rect width="12" height="12" x="162" y="498"/><rect width="12" height="12" x="162" y="546" rx=".59" ry=".59"/><rect width="12" height="12" x="162" y="594" rx=".59" ry=".59"/><rect width="12" height="12" x="162" y="642" rx=".59" ry=".59"/><rect width="12" height="12" x="162" y="684" rx=".59" ry=".59"/></g></g><g id="Jacket"><g id="Left"><polyline points="96 336 48 336 48 384 0 384 0 756 48 756 49 433 48 768 96 768" class="cls-20"/></g><g id="Right"><polyline points="240 768 288 768 288 432 288 756 336 756 336 384 288 384 288 336 240 336" class="cls-20"/></g><rect width="36" height="12" x="246" y="414" class="cls-21"/><rect width="36" height="12" x="54" y="414" class="cls-21"/></g><g id="Shoes"><g id="Left-2" data-name="Left"><rect width="144" height="48" y="1296" class="cls-20"/></g><g id="Right-2" data-name="Right"><rect width="144" height="48" x="192" y="1296" class="cls-20"/></g></g></g></svg>